<?xml version="1.0" standalone="no"?>
<!DOCTYPE svg PUBLIC "-//W3C//DTD SVG 20010904//EN"
 "http://www.w3.org/TR/2001/REC-SVG-20010904/DTD/svg10.dtd">
<svg version="1.0" xmlns="http://www.w3.org/2000/svg"
 width="70.000000pt" height="58.000000pt" viewBox="0 0 70.000000 58.000000"
 preserveAspectRatio="xMidYMid meet">

<g transform="translate(0.000000,58.000000) scale(0.100000,-0.100000)"
fill="#000000" stroke="none">
<path d="M562 478 c-66 -14 -127 -78 -141 -148 l-12 -56 -69 -18 c-38 -9 -101
-30 -141 -45 -58 -23 -75 -34 -90 -62 -25 -47 -24 -49 24 -49 42 0 45 2 60 40
l15 40 80 0 79 0 16 -40 c15 -39 17 -40 62 -40 42 0 45 2 35 19 -16 31 -13 31
33 6 23 -13 56 -25 72 -27 29 -3 30 -1 30 36 0 35 -3 39 -35 50 -41 13 -80 66
-80 108 0 58 53 118 105 118 10 0 15 10 15 34 0 19 -3 37 -7 39 -5 2 -27 0
-51 -5z"/>
<path d="M235 448 c-7 -18 -27 -64 -43 -103 -17 -38 -29 -71 -28 -73 2 -1 22
0 44 4 37 6 42 10 60 58 13 32 22 46 26 36 3 -8 10 -27 15 -42 8 -22 17 -28
38 -28 52 0 54 10 16 98 l-35 82 -40 0 c-35 0 -41 -4 -53 -32z"/>
</g>
</svg>
